<?xml version="1.0" encoding="utf-8"?>
<!-- Generator: Adobe Illustrator 19.0.0, SVG Export Plug-In . SVG Version: 6.00 Build 0)  -->
<svg version="1.1" xmlns="http://www.w3.org/2000/svg" xmlns:xlink="http://www.w3.org/1999/xlink" x="0px" y="0px"
	 viewBox="0 0 44 44" style="enable-background:new 0 0 44 44;" xml:space="preserve">
<style type="text/css">
	.st0{enable-background:new    ;}
	.st1{fill-rule:evenodd;clip-rule:evenodd;fill:#FFFFFF;}
	.st2{fill:#FD9933;}
	.st3{fill-rule:evenodd;clip-rule:evenodd;fill:#FD9933;}
</style>
<g id="矩形_575_拷贝_1_" class="st0">
</g>
<g id="图层_2">
	<rect class="st1" width="44" height="44"/>
	<path class="st2" d="M31.1,21.3H12.9c-2.5,0-4.5-2-4.5-4.5v-1.9c0-2.5,2-4.5,4.5-4.5h18.1c2.5,0,4.5,2,4.5,4.5v1.9
		C35.6,19.3,33.5,21.3,31.1,21.3z M12.9,13.1c-1,0-1.8,0.8-1.8,1.8v1.9c0,1,0.8,1.8,1.8,1.8h18.1c1,0,1.8-0.8,1.8-1.8v-1.9
		c0-1-0.8-1.8-1.8-1.8H12.9z"/>
	<path class="st2" d="M28.4,37.4H15.6c-2.6,0-4.7-2.1-4.7-4.7v-9.4c0-2.6,2.1-4.7,4.7-4.7h12.9c2.6,0,4.7,2.1,4.7,4.7v9.4
		C33.2,35.3,31,37.4,28.4,37.4z M15.6,21.4c-1.1,0-1.9,0.9-1.9,1.9v9.4c0,1.1,0.9,1.9,1.9,1.9h12.9c1.1,0,1.9-0.9,1.9-1.9v-9.4
		c0-1.1-0.9-1.9-1.9-1.9H15.6z"/>
	<polygon class="st3" points="25.3,5.5 22.2,8.6 18.7,5.2 16.5,7.3 20,10.8 20,10.8 22.2,12.9 27.5,7.6 	"/>
</g>
</svg>
